# Blender 3.6.3
# www.blender.org
mtllib brazo.mtl
o Cube.004
v -0.132226 0.001178 0.186800
v -0.132226 -1.301398 0.186800
v -0.132226 0.001178 -0.192092
v -0.132226 -1.301398 -0.192092
v 0.117774 0.001178 0.186800
v 0.117774 -1.301398 0.186800
v 0.117774 0.001178 -0.192092
v 0.117774 -1.301398 -0.192092
v -0.132226 -1.150826 0.186800
v -0.132226 -1.150826 -0.192092
v 0.117774 -1.150826 0.186800
v 0.117774 -1.150826 -0.192092
vn -0.7071 -0.0000 0.7071
vn -0.7071 -0.0000 -0.7071
vn -0.5774 -0.5774 -0.5774
vn -0.5774 -0.5774 0.5774
vn 0.7071 -0.0000 0.7071
vn 0.5774 -0.5774 0.5774
vn 0.5774 -0.5774 -0.5774
vn 0.7071 -0.0000 -0.7071
vn -0.5774 0.5774 -0.5774
vn -0.5774 0.5774 0.5774
vn 0.5774 0.5774 0.5774
vn 0.5774 0.5774 -0.5774
vt 0.884404 0.000000
vt 0.884404 1.000000
vt 1.000000 1.000000
vt 1.000000 0.000000
vt 0.000000 1.000000
vt 0.000000 0.000000
s 1
usemtl Material.030
f 9/1/1 10/2/2 4/3/3 2/4/4
f 11/1/5 6/4/6 8/3/7 12/2/8
f 2/4/4 4/3/3 8/3/7 6/4/6
f 9/1/1 2/4/4 6/4/6 11/1/5
f 4/3/3 10/2/2 12/2/8 8/3/7
usemtl Material.031
f 3/5/9 1/6/10 5/6/11 7/5/12
f 10/2/2 3/5/9 7/5/12 12/2/8
f 1/6/10 9/1/1 11/1/5 5/6/11
f 5/6/11 11/1/5 12/2/8 7/5/12
f 1/6/10 3/5/9 10/2/2 9/1/1
