# Blender 3.6.3
# www.blender.org
mtllib personaje.mtl
o Cube
v -0.442476 0.195634 -0.536541
v -0.442476 0.195634 0.668873
v -0.442476 -0.185238 -0.536541
v -0.442476 -0.185238 0.668873
v 0.426651 0.195634 -0.536541
v 0.426651 0.195634 0.668873
v 0.426651 -0.185238 -0.536541
v 0.426651 -0.185238 0.668873
v -0.020621 0.196504 -0.534196
v 0.052869 0.181886 -0.534196
v 0.115170 0.140258 -0.534196
v 0.156799 0.077956 -0.534196
v 0.171417 0.004467 -0.534196
v 0.156799 -0.069023 -0.534196
v 0.115170 -0.131324 -0.534196
v 0.052869 -0.172953 -0.534196
v -0.020621 -0.187571 -0.534196
v -0.094110 -0.172953 -0.534196
v -0.156412 -0.131324 -0.534196
v -0.198040 -0.069023 -0.534196
v -0.212658 0.004467 -0.534196
v -0.198040 0.077956 -0.534196
v -0.156412 0.140258 -0.534196
v -0.094110 0.181886 -0.534196
v -0.020621 0.196504 -0.616339
v 0.052869 0.181886 -0.616339
v 0.115170 0.140258 -0.616339
v 0.156799 0.077956 -0.616339
v 0.171417 0.004467 -0.616339
v 0.156799 -0.069023 -0.616339
v 0.115170 -0.131324 -0.616339
v 0.052869 -0.172953 -0.616339
v -0.020621 -0.187571 -0.616339
v -0.094110 -0.172953 -0.616339
v -0.156412 -0.131324 -0.616339
v -0.198040 -0.069023 -0.616339
v -0.212658 0.004467 -0.616339
v -0.198040 0.077956 -0.616339
v -0.156412 0.140258 -0.616339
v -0.094110 0.181886 -0.616339
v -0.020621 0.263860 -0.616339
v 0.078645 0.244115 -0.616339
v 0.162798 0.187885 -0.616339
v 0.219027 0.103732 -0.616339
v 0.238772 0.004467 -0.616339
v 0.219027 -0.094799 -0.616339
v 0.162798 -0.178952 -0.616339
v 0.078645 -0.235181 -0.616339
v -0.020621 -0.254927 -0.616339
v -0.119886 -0.235181 -0.616339
v -0.204039 -0.178952 -0.616339
v -0.260269 -0.094799 -0.616339
v -0.280014 0.004467 -0.616339
v -0.260269 0.103732 -0.616339
v -0.204039 0.187885 -0.616339
v -0.119886 0.244115 -0.616339
v -0.020621 0.263860 -1.048743
v 0.078645 0.244115 -1.048743
v 0.162798 0.187885 -1.048743
v 0.219028 0.103732 -1.048743
v 0.238773 0.004467 -1.048743
v 0.219028 -0.094799 -1.048743
v 0.162798 -0.178952 -1.048743
v 0.078645 -0.235181 -1.048743
v -0.020621 -0.254927 -1.048743
v -0.119886 -0.235181 -1.048743
v -0.204039 -0.178952 -1.048743
v -0.260269 -0.094799 -1.048743
v -0.280014 0.004467 -1.048743
v -0.260269 0.103732 -1.048743
v -0.204039 0.187885 -1.048743
v -0.119886 0.244115 -1.048743
v -0.020621 0.197097 -1.048743
v 0.053096 0.182434 -1.048743
v 0.115589 0.140677 -1.048743
v 0.157346 0.078183 -1.048743
v 0.172009 0.004467 -1.048743
v 0.157346 -0.069250 -1.048743
v 0.115589 -0.131743 -1.048743
v 0.053096 -0.173500 -1.048743
v -0.020621 -0.188163 -1.048743
v -0.094337 -0.173500 -1.048743
v -0.156831 -0.131743 -1.048743
v -0.198588 -0.069250 -1.048743
v -0.213251 0.004467 -1.048743
v -0.198588 0.078183 -1.048743
v -0.156831 0.140677 -1.048743
v -0.094337 0.182434 -1.048743
v -0.020621 0.197097 -1.126099
v 0.053096 0.182434 -1.126099
v 0.115589 0.140677 -1.126099
v 0.157346 0.078183 -1.126099
v 0.172009 0.004467 -1.126099
v 0.157346 -0.069250 -1.126099
v 0.115589 -0.131743 -1.126099
v 0.053096 -0.173500 -1.126099
v -0.020621 -0.188163 -1.126099
v -0.094337 -0.173500 -1.126099
v -0.156831 -0.131743 -1.126099
v -0.198587 -0.069250 -1.126099
v -0.213251 0.004467 -1.126099
v -0.198587 0.078183 -1.126099
v -0.156831 0.140677 -1.126099
v -0.094337 0.182434 -1.126099
v 0.084059 -0.231596 -0.975215
v 0.117544 -0.207978 -0.961345
v 0.131414 -0.200203 -0.927860
v 0.117544 -0.207978 -0.894375
v 0.084059 -0.231985 -0.880505
v 0.050574 -0.239759 -0.894375
v 0.036704 -0.242869 -0.927860
v 0.050574 -0.239953 -0.961345
v 0.088616 -0.241432 -0.975228
v 0.122101 -0.217815 -0.961358
v 0.135971 -0.210040 -0.927873
v 0.122101 -0.217815 -0.894388
v 0.088616 -0.241821 -0.880518
v 0.055131 -0.249596 -0.894388
v 0.041261 -0.252705 -0.927873
v 0.055131 -0.249790 -0.961358
v -0.117819 -0.234458 -0.975215
v -0.077753 -0.243047 -0.961345
v -0.062633 -0.247966 -0.927860
v -0.077753 -0.243047 -0.894375
v -0.118105 -0.234722 -0.880505
v -0.146528 -0.215388 -0.894375
v -0.158220 -0.207305 -0.927860
v -0.146671 -0.215520 -0.961345
v -0.121957 -0.244478 -0.975228
v -0.081891 -0.253067 -0.961358
v -0.066771 -0.257987 -0.927873
v -0.081891 -0.253067 -0.894388
v -0.122243 -0.244742 -0.880518
v -0.150666 -0.225408 -0.894388
v -0.162359 -0.217325 -0.927873
v -0.150809 -0.225540 -0.961358
vn 0.2856 0.6894 0.6657
vn -0.0000 0.7462 0.6657
vn -0.2856 0.6894 0.6657
vn -0.5276 0.5276 0.6657
vn -0.6894 0.2856 0.6657
vn -0.7462 -0.0000 0.6657
vn -0.6894 -0.2856 0.6657
vn -0.5276 -0.5276 0.6657
vn -0.2856 -0.6894 0.6657
vn -0.0000 -0.7462 0.6657
vn 0.2856 -0.6894 0.6657
vn 0.5276 -0.5276 0.6657
vn 0.6894 -0.2856 0.6657
vn 0.7462 -0.0000 0.6657
vn 0.6894 0.2856 0.6657
vn 0.5276 0.5276 0.6657
vn -0.4647 -0.4647 0.7538
vn -0.6071 -0.2515 0.7538
vn 0.6071 -0.2515 0.7538
vn 0.6571 -0.0000 0.7538
vn -0.6071 0.2515 0.7538
vn -0.6571 -0.0000 0.7538
vn 0.4647 -0.4647 0.7538
vn -0.4647 0.4647 0.7538
vn 0.2515 -0.6071 0.7538
vn -0.2515 0.6071 0.7538
vn -0.0000 -0.6571 0.7538
vn 0.2515 0.6071 0.7538
vn -0.0000 0.6571 0.7538
vn -0.2515 -0.6071 0.7538
vn 0.4647 0.4647 0.7538
vn 0.6071 0.2515 0.7538
vn -0.0000 0.7462 -0.6657
vn -0.2856 0.6894 -0.6657
vn -0.6894 0.2856 -0.6657
vn -0.5276 0.5276 -0.6657
vn -0.4647 0.4647 -0.7538
vn -0.6071 0.2515 -0.7538
vn -0.2856 -0.6894 -0.6657
vn -0.0000 -0.7462 -0.6657
vn 0.5276 0.5276 -0.6657
vn 0.2856 0.6894 -0.6657
vn -0.5276 -0.5276 -0.6657
vn 0.6894 0.2856 -0.6657
vn -0.6894 -0.2856 -0.6657
vn 0.7462 -0.0000 -0.6657
vn -0.7462 -0.0000 -0.6657
vn 0.6894 -0.2856 -0.6657
vn 0.5276 -0.5276 -0.6657
vn 0.2856 -0.6894 -0.6657
vn 0.6071 0.2515 -0.7538
vn 0.6571 -0.0000 -0.7538
vn 0.2515 -0.6071 -0.7538
vn 0.4647 -0.4647 -0.7538
vn -0.2515 0.6071 -0.7538
vn -0.0000 -0.6571 -0.7538
vn 0.2515 0.6071 -0.7538
vn -0.0000 0.6571 -0.7538
vn -0.2515 -0.6071 -0.7538
vn 0.4647 0.4647 -0.7538
vn -0.4647 -0.4647 -0.7538
vn -0.6071 -0.2515 -0.7538
vn -0.6571 -0.0000 -0.7538
vn 0.6071 -0.2515 -0.7538
vn -0.5774 0.5774 -0.5774
vn 0.5774 0.5774 -0.5774
vn 0.5774 -0.5774 -0.5774
vn -0.5774 -0.5774 -0.5774
vn -0.5774 -0.5774 0.5774
vn 0.5774 -0.5774 0.5774
vn 0.5774 0.5774 0.5774
vn -0.5774 0.5774 0.5774
vn -0.2057 -0.8068 0.5539
vn -0.4399 -0.8981 -0.0010
vn -0.2057 -0.8062 -0.5547
vn 0.2667 -0.5141 -0.8152
vn 0.7788 -0.3475 -0.5222
vn 0.9632 -0.2686 -0.0023
vn 0.7790 -0.3458 0.5230
vn 0.2670 -0.5204 0.8111
vn -0.7212 0.3393 0.6040
vn -0.2615 0.6138 0.7449
vn 0.2252 0.7864 0.5753
vn 0.4656 0.8850 0.0006
vn 0.2268 0.7860 -0.5752
vn -0.2622 0.6167 -0.7422
vn -0.7213 0.3394 -0.6038
vn -0.9743 0.2253 0.0010
vn -0.7324 -0.3960 0.5539
vn -0.9583 -0.2859 -0.0010
vn -0.7319 -0.3957 -0.5547
vn -0.1970 -0.5447 -0.8152
vn 0.2728 -0.8080 -0.5222
vn 0.4559 -0.8900 -0.0023
vn 0.2742 -0.8070 0.5230
vn -0.2013 -0.5492 0.8111
vn -0.2398 0.7601 0.6040
vn 0.2737 0.6084 0.7449
vn 0.7306 0.3679 0.5753
vn 0.9661 0.2581 0.0006
vn 0.7314 0.3663 -0.5752
vn 0.2754 0.6109 -0.7422
vn -0.2398 0.7603 -0.6038
vn -0.4952 0.8688 0.0010
vt 0.000000 0.000000
vt 0.625000 0.500000
vt 0.875000 0.500000
vt 0.875000 0.750000
vt 0.625000 0.750000
vt 0.375000 0.750000
vt 0.625000 1.000000
vt 0.375000 1.000000
vt 0.375000 0.000000
vt 0.625000 0.000000
vt 0.625000 0.250000
vt 0.375000 0.250000
vt 0.125000 0.500000
vt 0.375000 0.500000
vt 0.125000 0.750000
s 1
usemtl Material.003
f 10/1/1 9/1/2 24/1/3 23/1/4 22/1/5 21/1/6 20/1/7 19/1/8 18/1/9 17/1/10 16/1/11 15/1/12 14/1/13 13/1/14 12/1/15 11/1/16
f 35/1/17 36/1/18 52/1/7 51/1/8
f 13/1/14 14/1/13 30/1/19 29/1/20
f 21/1/6 22/1/5 38/1/21 37/1/22
f 14/1/13 15/1/12 31/1/23 30/1/19
f 22/1/5 23/1/4 39/1/24 38/1/21
f 15/1/12 16/1/11 32/1/25 31/1/23
f 23/1/4 24/1/3 40/1/26 39/1/24
f 16/1/11 17/1/10 33/1/27 32/1/25
f 9/1/2 10/1/1 26/1/28 25/1/29
f 24/1/3 9/1/2 25/1/29 40/1/26
f 17/1/10 18/1/9 34/1/30 33/1/27
f 10/1/1 11/1/16 27/1/31 26/1/28
f 18/1/9 19/1/8 35/1/17 34/1/30
f 11/1/16 12/1/15 28/1/32 27/1/31
f 19/1/8 20/1/7 36/1/18 35/1/17
f 12/1/15 13/1/14 29/1/20 28/1/32
f 20/1/7 21/1/6 37/1/22 36/1/18
f 56/1/3 41/1/2 57/1/33 72/1/34
f 28/1/32 29/1/20 45/1/14 44/1/15
f 36/1/18 37/1/22 53/1/6 52/1/7
f 29/1/20 30/1/19 46/1/13 45/1/14
f 37/1/22 38/1/21 54/1/5 53/1/6
f 30/1/19 31/1/23 47/1/12 46/1/13
f 38/1/21 39/1/24 55/1/4 54/1/5
f 31/1/23 32/1/25 48/1/11 47/1/12
f 39/1/24 40/1/26 56/1/3 55/1/4
f 32/1/25 33/1/27 49/1/10 48/1/11
f 25/1/29 26/1/28 42/1/1 41/1/2
f 40/1/26 25/1/29 41/1/2 56/1/3
f 33/1/27 34/1/30 50/1/9 49/1/10
f 26/1/28 27/1/31 43/1/16 42/1/1
f 34/1/30 35/1/17 51/1/8 50/1/9
f 27/1/31 28/1/32 44/1/15 43/1/16
f 70/1/35 71/1/36 87/1/37 86/1/38
f 49/1/10 50/1/9 66/1/39 65/1/40
f 42/1/1 43/1/16 59/1/41 58/1/42
f 50/1/9 51/1/8 67/1/43 66/1/39
f 43/1/16 44/1/15 60/1/44 59/1/41
f 51/1/8 52/1/7 68/1/45 67/1/43
f 44/1/15 45/1/14 61/1/46 60/1/44
f 52/1/7 53/1/6 69/1/47 68/1/45
f 45/1/14 46/1/13 62/1/48 61/1/46
f 53/1/6 54/1/5 70/1/35 69/1/47
f 46/1/13 47/1/12 63/1/49 62/1/48
f 54/1/5 55/1/4 71/1/36 70/1/35
f 47/1/12 48/1/11 64/1/50 63/1/49
f 55/1/4 56/1/3 72/1/34 71/1/36
f 48/1/11 49/1/10 65/1/40 64/1/50
f 41/1/2 42/1/1 58/1/42 57/1/33
f 76/1/51 77/1/52 93/1/46 92/1/44
f 63/1/49 64/1/50 80/1/53 79/1/54
f 71/1/36 72/1/34 88/1/55 87/1/37
f 64/1/50 65/1/40 81/1/56 80/1/53
f 57/1/33 58/1/42 74/1/57 73/1/58
f 72/1/34 57/1/33 73/1/58 88/1/55
f 65/1/40 66/1/39 82/1/59 81/1/56
f 58/1/42 59/1/41 75/1/60 74/1/57
f 66/1/39 67/1/43 83/1/61 82/1/59
f 59/1/41 60/1/44 76/1/51 75/1/60
f 67/1/43 68/1/45 84/1/62 83/1/61
f 60/1/44 61/1/46 77/1/52 76/1/51
f 68/1/45 69/1/47 85/1/63 84/1/62
f 61/1/46 62/1/48 78/1/64 77/1/52
f 69/1/47 70/1/35 86/1/38 85/1/63
f 62/1/48 63/1/49 79/1/54 78/1/64
f 90/1/42 91/1/41 92/1/44 93/1/46 94/1/48 95/1/49 96/1/50 97/1/40 98/1/39 99/1/43 100/1/45 101/1/47 102/1/35 103/1/36 104/1/34 89/1/33
f 84/1/62 85/1/63 101/1/47 100/1/45
f 77/1/52 78/1/64 94/1/48 93/1/46
f 85/1/63 86/1/38 102/1/35 101/1/47
f 78/1/64 79/1/54 95/1/49 94/1/48
f 86/1/38 87/1/37 103/1/36 102/1/35
f 79/1/54 80/1/53 96/1/50 95/1/49
f 87/1/37 88/1/55 104/1/34 103/1/36
f 80/1/53 81/1/56 97/1/40 96/1/50
f 73/1/58 74/1/57 90/1/42 89/1/33
f 88/1/55 73/1/58 89/1/33 104/1/34
f 81/1/56 82/1/59 98/1/39 97/1/40
f 74/1/57 75/1/60 91/1/41 90/1/42
f 82/1/59 83/1/61 99/1/43 98/1/39
f 75/1/60 76/1/51 92/1/44 91/1/41
f 83/1/61 84/1/62 100/1/45 99/1/43
usemtl Material.004
f 1/2/65 5/3/66 7/4/67 3/5/68
f 4/6/69 3/5/68 7/7/67 8/8/70
f 8/9/70 7/10/67 5/11/66 6/12/71
f 6/13/71 2/14/72 4/6/69 8/15/70
f 2/14/72 1/2/65 3/5/68 4/6/69
f 6/12/71 5/11/66 1/2/65 2/14/72
usemtl Material.005
f 106/1/73 107/1/74 108/1/75 109/1/76 110/1/77 111/1/78 112/1/79 105/1/80
f 114/1/81 113/1/82 120/1/83 119/1/84 118/1/85 117/1/86 116/1/87 115/1/88
f 106/1/73 105/1/80 113/1/82 114/1/81
f 105/1/80 112/1/79 120/1/83 113/1/82
f 111/1/78 110/1/77 118/1/85 119/1/84
f 109/1/76 108/1/75 116/1/87 117/1/86
f 107/1/74 106/1/73 114/1/81 115/1/88
f 112/1/79 111/1/78 119/1/84 120/1/83
f 110/1/77 109/1/76 117/1/86 118/1/85
f 108/1/75 107/1/74 115/1/88 116/1/87
f 122/1/89 123/1/90 124/1/91 125/1/92 126/1/93 127/1/94 128/1/95 121/1/96
f 130/1/97 129/1/98 136/1/99 135/1/100 134/1/101 133/1/102 132/1/103 131/1/104
f 122/1/89 121/1/96 129/1/98 130/1/97
f 121/1/96 128/1/95 136/1/99 129/1/98
f 127/1/94 126/1/93 134/1/101 135/1/100
f 125/1/92 124/1/91 132/1/103 133/1/102
f 123/1/90 122/1/89 130/1/97 131/1/104
f 128/1/95 127/1/94 135/1/100 136/1/99
f 126/1/93 125/1/92 133/1/102 134/1/101
f 124/1/91 123/1/90 131/1/104 132/1/103
